# xmcd CD database file
#
# Track frame offsets:
#	150
#	13415
#	26156
#	38854
#	53019
#	66317
#	79380
#	94109
#	109175
#	124112
#	143205
#	155644
#
# Disc length: 2289 seconds
#
# Revision: 0
# Processed by: cddbd v1.5.2PL0 Copyright (c) Steve Scherf et al.
# Submitted via: CDex 1.70beta2
#
DISCID=aa08ef0c
DTITLE=Hey Romeo - Cdn. - Edmonton, AB - That's What I Am
DYEAR=1900
DGENRE=Country
TTITLE0=That's What I Am
TTITLE1=Snap My Fingers
TTITLE2=If I'm Not Here
TTITLE3=Searching For You
TTITLE4=He Still Calls Me Baby
TTITLE5=Come Out Here And Dance
TTITLE6=Feels Like Yesterday
TTITLE7=Hello
TTITLE8=Its Love
TTITLE9=Stuck On Loving You
TTITLE10=Can't Wait To See The Rest
TTITLE11=Loving You
EXTD=
EXTT0=
EXTT1=
EXTT2=
EXTT3=
EXTT4=
EXTT5=
EXTT6=
EXTT7=
EXTT8=
EXTT9=
EXTT10=
EXTT11=
PLAYORDER=
